<?xml version="1.0" standalone="no"?>
<!DOCTYPE svg PUBLIC "-//W3C//DTD SVG 20010904//EN"
 "http://www.w3.org/TR/2001/REC-SVG-20010904/DTD/svg10.dtd">
<svg version="1.0" xmlns="http://www.w3.org/2000/svg"
 width="100.000000pt" height="100.000000pt" viewBox="0 0 100.000000 100.000000"
 preserveAspectRatio="xMidYMid meet">

<g transform="translate(0.000000,100.000000) scale(0.100000,-0.100000)"
fill="#000000" stroke="none">
<path d="M53 983 c-27 -22 -53 -82 -53 -122 0 -44 28 -107 55 -125 14 -9 42
-16 65 -16 l40 0 0 -287 c0 -259 2 -292 19 -329 40 -88 93 -106 291 -102 121
2 145 5 145 18 0 13 -27 16 -160 20 -178 6 -198 12 -235 73 -19 30 -20 52 -20
320 l0 287 230 0 c223 0 230 1 230 20 0 11 -5 20 -10 20 -18 0 -50 64 -50 100
0 41 33 100 55 100 29 0 71 -28 85 -57 11 -21 16 -84 20 -243 4 -182 7 -215
20 -215 13 0 15 31 18 205 3 228 -3 263 -59 316 l-30 29 -317 3 c-289 2 -319
0 -339 -15z m521 -58 c-7 -19 -14 -48 -14 -65 0 -17 7 -46 14 -65 l15 -35
-255 0 -254 0 -20 33 c-11 17 -20 48 -20 67 0 19 9 50 20 68 l20 32 254 0 255
0 -15 -35z"/>
<path d="M280 560 c0 -18 5 -21 38 -18 25 2 37 8 37 18 0 10 -12 16 -37 18
-33 3 -38 0 -38 -18z"/>
<path d="M400 560 c0 -20 5 -20 138 -18 114 3 137 6 137 18 0 12 -23 15 -137
18 -133 2 -138 2 -138 -18z"/>
<path d="M280 440 c0 -18 5 -21 38 -18 25 2 37 8 37 18 0 10 -12 16 -37 18
-33 3 -38 0 -38 -18z"/>
<path d="M400 440 c0 -20 5 -20 138 -18 114 3 137 6 137 18 0 12 -23 15 -137
18 -133 2 -138 2 -138 -18z"/>
<path d="M732 389 c-48 -14 -109 -80 -123 -131 -23 -89 12 -182 88 -229 57
-36 154 -34 210 3 62 41 88 90 88 168 0 77 -26 127 -85 166 -43 29 -125 39
-178 23z m131 -43 c103 -43 128 -177 48 -257 -65 -65 -157 -65 -222 0 -124
123 13 325 174 257z"/>
<path d="M780 260 l0 -40 -40 0 c-33 0 -40 -3 -40 -20 0 -17 7 -20 40 -20 l40
0 0 -40 c0 -33 3 -40 20 -40 17 0 20 7 20 40 l0 40 40 0 c33 0 40 3 40 20 0
17 -7 20 -40 20 l-40 0 0 40 c0 33 -3 40 -20 40 -17 0 -20 -7 -20 -40z"/>
<path d="M280 320 c0 -18 5 -21 38 -18 25 2 37 8 37 18 0 10 -12 16 -37 18
-33 3 -38 0 -38 -18z"/>
<path d="M400 320 c0 -20 5 -21 98 -18 78 2 97 6 97 18 0 12 -19 16 -97 18
-93 3 -98 2 -98 -18z"/>
<path d="M280 200 c0 -18 5 -21 38 -18 25 2 37 8 37 18 0 10 -12 16 -37 18
-33 3 -38 0 -38 -18z"/>
<path d="M400 200 c0 -20 5 -21 78 -18 60 2 77 6 77 18 0 12 -17 16 -77 18
-73 3 -78 2 -78 -18z"/>
</g>
</svg>
