<?xml version="1.0" standalone="no"?>
<!DOCTYPE svg PUBLIC "-//W3C//DTD SVG 20010904//EN"
 "http://www.w3.org/TR/2001/REC-SVG-20010904/DTD/svg10.dtd">
<svg version="1.0" xmlns="http://www.w3.org/2000/svg"
 width="80.000000pt" height="80.000000pt" viewBox="0 0 80.000000 80.000000"
 preserveAspectRatio="xMidYMid meet">

<g transform="translate(0.000000,80.000000) scale(0.100000,-0.100000)"
fill="#000000" stroke="none">
<path d="M356 735 c-20 -22 -32 -24 -112 -27 l-89 -3 0 -305 0 -305 245 0 245
0 0 305 0 305 -89 3 c-80 3 -92 5 -112 27 -13 14 -32 25 -44 25 -12 0 -31 -11
-44 -25z m79 -22 c7 -16 18 -23 37 -23 23 0 28 -4 28 -25 l0 -25 -100 0 -100
0 0 25 c0 21 5 25 30 25 18 0 30 5 30 13 0 40 58 47 75 10z m-153 -55 l3 -33
115 0 115 0 3 33 c3 32 4 32 58 32 l54 0 0 -290 0 -290 -230 0 -230 0 0 290 0
290 54 0 c54 0 55 0 58 -32z"/>
<path d="M390 700 c0 -5 5 -10 10 -10 6 0 10 5 10 10 0 6 -4 10 -10 10 -5 0
-10 -4 -10 -10z"/>
</g>
</svg>
